# xmcd CD database file
#
# Track frame offsets:
#	150
#	44744
#	75221
#	113420
#	131002
#	167720
#	208714
#	241087
#
# Disc length: 3431 seconds
#
# Revision: 0
# Processed by: cddbd v1.5.2PL0 Copyright (c) Steve Scherf et al.
# Submitted via: CDex 1.70beta2
#
DISCID=5e0d6508
DTITLE=Emmet Cohen - Infinity
DYEAR=2013
DGENRE=Jazz
TTITLE0=Nun è peccat (P. Di Capri)
TTITLE1=Moonlight in Vermount
TTITLE2=Infinity (E. Cohen)
TTITLE3=Hop, Skip and Jump (E. Cohen)
TTITLE4=Autumn Nocturne (Gannon/Myrow)
TTITLE5=Blues Etude (O. Peterson)
TTITLE6=Nightingale (E. Cohen)
TTITLE7=Simona  (E. Cohen)
EXTD=YEAR: 2013
EXTT0=
EXTT1=
EXTT2=
EXTT3=
EXTT4=
EXTT5=
EXTT6=
EXTT7=
PLAYORDER=
